<?xml version="1.0" standalone="no"?>
<!DOCTYPE svg PUBLIC "-//W3C//DTD SVG 20010904//EN"
 "http://www.w3.org/TR/2001/REC-SVG-20010904/DTD/svg10.dtd">
<svg version="1.0" xmlns="http://www.w3.org/2000/svg"
 width="338.000000pt" height="338.000000pt" viewBox="0 0 338.000000 338.000000"
 preserveAspectRatio="xMidYMid meet">

<g transform="translate(0.000000,338.000000) scale(0.100000,-0.100000)"
fill="#000000" stroke="none">
<path d="M2324 2995 c-9 -23 4 -47 23 -43 22 4 30 38 11 49 -19 13 -28 11 -34
-6z"/>
<path d="M2380 2885 c-41 -41 -45 -43 -61 -29 -18 17 -39 12 -39 -9 1 -20 50
-69 64 -64 7 3 35 31 61 62 42 49 46 58 34 71 -13 12 -20 8 -59 -31z"/>
<path d="M1513 2758 c-54 -12 -108 -70 -118 -127 -4 -22 -12 -41 -19 -41 -7 0
-28 -16 -46 -35 -32 -33 -35 -41 -34 -94 1 -89 74 -231 119 -231 3 0 5 25 5
55 0 66 20 119 51 135 14 8 43 10 83 6 199 -21 232 -20 280 7 l45 25 19 -22
c33 -35 43 -64 49 -135 6 -67 6 -68 29 -57 43 20 96 194 78 257 -7 26 -20 39
-52 55 l-42 22 26 17 c14 9 23 19 20 23 -4 3 -20 -4 -36 -16 -16 -12 -31 -22
-33 -22 -1 0 -1 15 1 33 4 33 -27 87 -51 87 -6 0 -1 -9 11 -20 21 -20 39 -66
29 -76 -2 -3 -14 10 -25 29 -16 27 -37 41 -108 71 -85 36 -192 67 -224 65 -8
-1 -34 -5 -57 -11z"/>
<path d="M2300 2410 c0 -11 7 -20 15 -20 8 0 15 9 15 20 0 11 -7 20 -15 20 -8
0 -15 -9 -15 -20z"/>
<path d="M1513 2323 c-24 -5 -49 -30 -39 -40 3 -3 17 -1 31 5 14 7 37 12 51
12 16 0 24 5 22 13 -5 13 -30 17 -65 10z"/>
<path d="M1770 2310 c0 -5 12 -10 28 -10 15 0 37 -7 49 -15 28 -20 45 2 18 22
-22 15 -95 18 -95 3z"/>
<path d="M1517 2219 c-3 -12 -1 -31 4 -41 14 -27 41 -4 37 31 -4 33 -33 40
-41 10z"/>
<path d="M1794 2215 c-6 -24 9 -55 27 -55 15 0 22 50 9 65 -18 22 -29 19 -36
-10z"/>
<path d="M2132 1554 c-12 -50 -22 -100 -21 -110 0 -11 11 26 25 80 13 55 23
104 21 110 -2 6 -14 -30 -25 -80z"/>
<path d="M2928 1613 c7 -3 16 -2 19 1 4 3 -2 6 -13 5 -11 0 -14 -3 -6 -6z"/>
<path d="M2933 1593 c15 -2 37 -2 50 0 12 2 0 4 -28 4 -27 0 -38 -2 -22 -4z"/>
<path d="M2096 1359 c-8 -81 -8 -109 2 -109 4 0 8 38 10 85 2 47 2 85 -1 85
-2 0 -7 -28 -11 -61z"/>
<path d="M1364 1244 c-10 -8 -12 -12 -4 -7 8 4 116 10 240 13 l225 6 -221 2
c-188 2 -223 0 -240 -14z"/>
<path d="M1858 1232 l-468 -2 -14 -23 c-8 -12 -41 -161 -74 -330 -33 -170 -63
-311 -65 -314 -5 -4 -190 34 -260 54 -14 4 -18 0 -15 -13 2 -13 32 -25 128
-49 l125 -32 490 -4 490 -4 1 40 c2 50 64 319 75 323 4 2 6 9 3 17 -5 12 32
209 55 291 5 18 6 36 2 40 -3 5 -216 8 -473 6z m2 -272 c39 -39 19 -105 -40
-135 -87 -45 -158 34 -99 109 38 48 104 61 139 26z"/>
<path d="M1341 1204 c0 -11 3 -14 6 -6 3 7 2 16 -1 19 -3 4 -6 -2 -5 -13z"/>
<path d="M1235 1179 c-24 -67 -35 -104 -34 -118 0 -12 2 -12 10 4 6 13 7 -12
4 -75 -6 -98 5 -119 14 -27 1 4 6 7 12 7 8 0 10 -15 7 -45 -4 -27 -2 -45 5
-45 6 0 8 25 3 71 -8 94 1 172 21 165 10 -4 8 6 -8 32 -29 48 -28 47 -34 31z"/>
<path d="M1331 1164 c0 -11 3 -14 6 -6 3 7 2 16 -1 19 -3 4 -6 -2 -5 -13z"/>
<path d="M2804 1170 c-56 -22 -73 -109 -30 -149 30 -28 83 -31 119 -8 55 36
40 133 -24 156 -37 13 -37 13 -65 1z m81 -40 c56 -62 -36 -149 -95 -90 -11 11
-20 31 -20 45 0 56 77 86 115 45z"/>
<path d="M1321 1114 c0 -11 3 -14 6 -6 3 7 2 16 -1 19 -3 4 -6 -2 -5 -13z"/>
<path d="M1277 1093 c-11 -11 -8 -65 3 -58 6 4 7 12 4 18 -5 8 -3 8 6 0 11
-11 12 -22 2 -60 -7 -27 -14 -62 -16 -80 -6 -43 -13 -53 -39 -54 -21 0 -21 -1
-2 -9 11 -5 25 -9 30 -9 6 -1 21 50 33 112 25 128 26 141 12 132 -5 -3 -10 -1
-10 4 0 12 -13 14 -23 4z"/>
<path d="M1015 910 c-4 -6 6 -10 24 -10 16 0 33 5 36 10 4 6 -6 10 -24 10 -16
0 -33 -4 -36 -10z"/>
<path d="M1080 896 c0 -2 7 -6 15 -10 8 -3 15 -1 15 4 0 6 -7 10 -15 10 -8 0
-15 -2 -15 -4z"/>
<path d="M1261 804 c0 -11 3 -14 6 -6 3 7 2 16 -1 19 -3 4 -6 -2 -5 -13z"/>
<path d="M802 765 c0 -16 2 -22 5 -12 2 9 2 23 0 30 -3 6 -5 -1 -5 -18z"/>
<path d="M2655 698 c7 -40 16 -103 20 -140 11 -98 14 -101 133 -105 76 -2 104
0 114 11 8 7 22 67 32 137 10 68 20 134 23 147 l5 22 -169 0 -170 0 12 -72z"/>
<path d="M2490 730 c0 -5 -21 -22 -47 -37 -36 -21 -43 -29 -29 -31 10 -2 23 2
27 10 8 11 11 11 18 -1 8 -12 11 -12 23 0 12 13 22 69 12 69 -2 0 -4 -4 -4
-10z"/>
<path d="M845 690 c3 -5 13 -10 21 -10 8 0 12 5 9 10 -3 6 -13 10 -21 10 -8 0
-12 -4 -9 -10z"/>
<path d="M1225 642 c-5 -17 -15 -19 -103 -15 -62 2 -92 0 -82 -5 16 -10 180
-45 185 -40 1 2 5 20 9 41 7 39 2 51 -9 19z"/>
<path d="M1028 643 c6 -2 18 -2 25 0 6 3 1 5 -13 5 -14 0 -19 -2 -12 -5z"/>
<path d="M2365 640 c-27 -5 -32 -8 -15 -9 14 -1 35 -4 48 -7 16 -5 22 -2 22
10 0 9 -3 15 -7 15 -5 -1 -26 -5 -48 -9z"/>
<path d="M2263 633 c9 -2 23 -2 30 0 6 3 -1 5 -18 5 -16 0 -22 -2 -12 -5z"/>
<path d="M2368 514 c-3 -5 -1 -20 4 -34 6 -14 12 -20 14 -14 6 15 -11 60 -18
48z"/>
<path d="M715 459 c-4 -5 -4 -21 -1 -35 6 -21 12 -25 39 -22 28 3 32 7 35 36
3 31 2 32 -32 32 -19 0 -38 -5 -41 -11z"/>
<path d="M2220 435 c-11 -13 -8 -15 13 -15 19 0 25 4 21 15 -4 8 -10 15 -14
15 -4 0 -13 -7 -20 -15z"/>
<path d="M383 343 c15 -2 37 -2 50 0 12 2 0 4 -28 4 -27 0 -38 -2 -22 -4z"/>
<path d="M1303 333 c48 -2 125 -2 170 0 45 1 6 3 -88 3 -93 0 -130 -2 -82 -3z"/>
<path d="M1568 333 c7 -3 16 -2 19 1 4 3 -2 6 -13 5 -11 0 -14 -3 -6 -6z"/>
<path d="M1613 333 c9 -2 25 -2 35 0 9 3 1 5 -18 5 -19 0 -27 -2 -17 -5z"/>
<path d="M2593 323 c59 -2 155 -2 215 0 59 1 10 3 -108 3 -118 0 -167 -2 -107
-3z"/>
<path d="M2968 323 c6 -2 18 -2 25 0 6 3 1 5 -13 5 -14 0 -19 -2 -12 -5z"/>
<path d="M3018 323 c7 -3 16 -2 19 1 4 3 -2 6 -13 5 -11 0 -14 -3 -6 -6z"/>
</g>
</svg>
